<svg xmlns="http://www.w3.org/2000/svg" xmlns:xlink="http://www.w3.org/1999/xlink" width="119" height="130" viewBox="0 0 119 130"><defs><path id="er42hd0ena" d="M0 .362h106.498v117.886H0z"></path></defs><g fill="none" fill-rule="evenodd"><path d="M60.054 5.021c-.135.052-.316.472-.316.472s-.472 1.097-1.104 2.664c-.629 1.567-2.993 5.797-5.121 9.168-2.126 3.37-7.326 12.069-9.769 16.85-2.443 4.78-4.335 16.3-4.335 16.3s-6.46-7.054-16.546-6.348c-10.085.704-15.128 8.542-15.995 10.422C6 56.43 2.692 63.717 7.735 73.12c5.043 9.405 15.996 14.108 15.996 14.108-1.025-10.346 1.654-14.03 4.647-15.518 2.995-1.49 6.146-1.176 9.692.628 3.546 1.801 4.885 5.248 4.885 5.248s.081 2.197.158 3.057c.08.861.71 2.823 1.024 4.39.315 1.567-.236 1.486-.71 1.725-.472.233-1.573.47-2.364 1.408-.786.943-.786 2.823-.078 3.999.71 1.175 1.498 1.253 2.364 1.564.867.313 2.128-.31 2.364.08.236.392.08.627-.472 1.409-.553.784-1.654 1.727-2.128 2.118-.472.39-1.34 1.176-1.34 1.176-6.618-.55-7.878-5.172-8.036-5.88-.159-.704-.631-.39-.948-.31-.312.077-2.362.156-5.276 3.21-2.917 3.058-1.971 8.304-1.182 10.503.786 2.195 3.544 5.405 7.168 7.052 3.625 1.645 6.778.55 9.928-.548 3.153-1.1 4.257-3.607 4.807-3.529.55.08.394.552.632.943.236.39 0 0 2.836 5.878S60.29 125 60.29 125s4.033-3.01 5.535-5.356c1.503-2.35 3.542-5.712 4.295-7.634.75-1.922 1.664-3.791 1.664-3.791s4.776 5.019 10.357 4.913c5.582-.109 8.212-1.816 11.27-6.887 3.06-5.07-.323-10.675-.912-11.475-.59-.805-2.414-2.564-3.758-3.256l-1.341-.695s-.912 4.111-3.22 5.656c-2.307 1.55-3.434 1.922-4.614 1.978-1.182.052-2.094-.16-2.094-.16s-.161-.803-1.128-1.174c-.966-.375-1.61-.428-1.77-.855-.162-.427-.537-1.442-.646-1.655-.105-.213-.214-1.015-.214-1.015s1.664.321 3.167-.907c1.503-1.23 1.182-2.722.86-3.683-.324-.961-1.34-1.816-1.826-2.026-.484-.215-1.18-.482-1.019-1.286.161-.799 1.073-6.402 1.396-7.525.323-1.12 4.776-7.204 8.694-7.471 3.917-.267 6.977-.16 9.5 3.63 2.521 3.789 1.341 11.21 1.341 11.21s6.439-3.1 9.662-6.14c3.22-3.043 5.473-5.284 6.814-8.756 1.341-3.469 2.953-10.193.161-16.332-2.791-6.139-6.172-9.234-12.506-10.568-6.333-1.335-14.972 2.722-16.957 4.43-1.987 1.708-2.63 2.081-2.63 2.081s-.592.428-.646-.373c-.052-.802-.484-5.657-2.037-10.462-1.557-4.804-4.188-10.943-6.443-14.412-2.253-3.47-5.151-7.473-6.386-9.661-1.232-2.189-2.63-5.072-3.38-6.994 0 0-.636-1.805-.89-2.513-.254-.709-.295-.907-.535-.815" stroke="#FFF" stroke-width="8.174" fill="#FFF" stroke-linecap="round"></path><g transform="translate(6 5.346)"><mask id="c3285swjib" fill="#fff"><use xlink:href="#er42hd0ena"></use></mask><path d="M53.791.383c-.132.051-.31.463-.31.463s-.46 1.078-1.077 2.617c-.615 1.54-2.925 5.696-5.004 9.007-2.078 3.31-7.158 11.856-9.545 16.552-2.387 4.697-4.235 16.013-4.235 16.013s-6.313-6.93-16.167-6.235C7.6 39.49 2.673 47.19 1.825 49.038c-.848 1.849-4.08 9.007.847 18.246C7.6 76.523 18.301 81.142 18.301 81.142 17.3 70.98 19.917 67.361 22.84 65.898c2.927-1.464 6.005-1.155 9.47.617 3.465 1.77 4.773 5.156 4.773 5.156s.08 2.158.154 3.003c.079.846.694 2.773 1.001 4.312.308 1.54-.23 1.46-.693 1.695-.462.229-1.538.461-2.31 1.384-.769.926-.769 2.773-.077 3.928.694 1.154 1.464 1.231 2.31 1.537.847.307 2.079-.306 2.31.079.23.384.078.615-.462 1.383-.54.77-1.616 1.697-2.079 2.081-.461.383-1.308 1.155-1.308 1.155-6.467-.54-7.698-5.08-7.852-5.776-.156-.692-.617-.383-.926-.306-.306.077-2.308.154-5.156 3.156-2.85 3.003-1.926 8.157-1.155 10.317.769 2.156 3.463 5.31 7.004 6.927 3.542 1.616 6.622.54 9.7-.538 3.081-1.08 4.159-3.543 4.697-3.467.538.08.384.542.617.927.23.382 0 0 2.77 5.774 2.772 5.775 8.393 9.007 8.393 9.007s3.94-2.956 5.407-5.262c1.469-2.308 3.461-5.611 4.196-7.5.733-1.887 1.626-3.724 1.626-3.724s4.667 4.93 10.12 4.826c5.454-.106 8.023-1.783 11.011-6.765 2.99-4.98-.315-10.487-.89-11.273-.578-.79-2.36-2.519-3.672-3.199l-1.31-.682s-.892 4.038-3.146 5.556c-2.255 1.523-3.356 1.888-4.51 1.943-1.154.051-2.045-.158-2.045-.158s-.158-.788-1.102-1.152c-.944-.369-1.572-.42-1.73-.84-.158-.42-.524-1.417-.63-1.626-.103-.209-.21-.997-.21-.997s1.626.315 3.094-.891c1.469-1.208 1.155-2.674.84-3.618-.315-.944-1.309-1.784-1.784-1.99-.473-.212-1.152-.474-.995-1.264.158-.785 1.049-6.289 1.364-7.393.315-1.1 4.667-7.077 8.494-7.339 3.827-.262 6.817-.158 9.283 3.565 2.463 3.723 1.31 11.013 1.31 11.013s6.291-3.045 9.44-6.03c3.146-2.99 5.347-5.192 6.658-8.603 1.31-3.408 2.885-10.014.157-16.044-2.727-6.031-6.03-9.072-12.219-10.383-6.188-1.31-14.629 2.675-16.568 4.352-1.941 1.679-2.57 2.046-2.57 2.046s-.577.42-.63-.367c-.052-.788-.474-5.558-1.991-10.278-1.522-4.72-4.092-10.75-6.295-14.158-2.201-3.41-5.033-7.341-6.24-9.491-1.204-2.15-2.57-4.983-3.303-6.87 0 0-.62-1.774-.869-2.47-.248-.696-.287-.89-.522-.8" fill="#231F20" mask="url(#c3285swjib)"></path></g><path d="M60.065 8.896c.42 1.775 1.362 3.24 2.148 4.808 2.515 4.81 6.076 8.991 8.591 13.853 1.204 2.038 2.2 4.182 3.09 6.378.942 2.142 1.729 4.39 2.464 6.637 1.098 3.45 1.466 7.318 1.833 11.24.209.104 0 .731.47.573 2.933-2.562 5.866-5.069 9.533-6.377.316-.26.68-.313 1.1-.47 1.99-.521 4.03-.941 6.287-1.097v-.104l.158.157c0-.053.049-.053.049-.157l.106.157c.158-.262.525-.106.785-.157-.051.104 0 .104.053.157.053 0 .104-.053.104-.053-.05.051.316.105.316-.104v.104l1.517.105c.156.157.525.208.84.208 0 .21.313.054.469.158a2.12 2.12 0 0 1-1.36.678c-.42.105-.733.367-1.204.471-4.976 1.673-10.166 2.98-15.191 4.651-1.94 1.309-4.034 2.458-6.13 3.504-.208.105-.208-.157-.315-.209.264-4.34-.575-7.946-1.413-11.606-.524-2.613-1.73-4.808-2.41-7.317a98.663 98.663 0 0 0-8.693-15.578c-.733-.835-1.258-1.828-1.73-2.875-.367-.367-.523-.94-.68-1.464-.418-.314-.525-.783-.63-1.36-.157-.365-.261-.834-.628-.94-.473.524-.473 1.202-.733 1.83-.315.47-.577 1.098-.733 1.672-1.518 2.877-3.248 5.646-4.923 8.468-2.568 3.87-4.925 7.998-6.602 12.442a1.71 1.71 0 0 0-.365.94c-.158.107-.21.316-.158.576-.157.053-.262.315-.21.522-.158.106-.21.367-.21.575-.208.367-.313.68-.366 1.151v.158c-.209.103-.105.47-.158.627a.943.943 0 0 0-.209.784c-.157.207-.157.627-.262.887-.051.262-.157.473-.104.784-.21.21-.21.576-.21.89H44.3c0 .888-.367 1.36-.316 2.246h-.05c-.052 1.255-.525 2.093-.316 3.4-.051 0-.103.05-.156.05.053.054.105.105.158.054l-.158.209v3.66h-.315c.053-.262-.21-.053-.314-.21-2.932-1.255-5.185-3.817-8.537-4.497-.105-.157-.315-.26-.576-.208v-.052c-.157-.104-.42-.053-.63-.053-.052-.313-.576-.209-.838-.26-.158-.158-.47-.158-.629-.262-.262-.051-.47-.158-.784-.105-.106-.209-.42-.209-.682-.209-.366-.208-.68-.366-1.153-.366h-.157c-.365-.209-.68-.365-1.151-.365h-.158c-.158-.21-.471-.21-.629-.262-.575.051-.733-.366-1.255-.315-.158-.207-.524-.156-.788-.207-.103-.209-.418-.105-.627-.158-.105-.209-.42-.209-.682-.209-.367-.209-.68-.366-1.151-.366h-.158c-.106-.21-.42-.105-.63-.21-.103-.208-.365-.104-.574-.157-.262-.26-.788-.102-.995-.418h-.262c0-.05-.053-.05-.053-.104h-.21c0-.209.418-.104.525-.313.262-.052.575 0 .889-.105 1.257-.104 2.463-.364 3.876-.26v.051c1.206-.051 1.782.418 3.04.316.104.26.524.05.732.207v.053c.316.051.576.157.942.104.054.21.367.158.578.21 0 .261.313 0 .418.157 3.823 1.306 6.913 3.764 9.952 6.429l.473-.052.158-3.242h.051c.105-1.149.314-2.09.314-3.293.157-.262.157-.731.262-.993.053-.367.157-.68.104-1.098.158-.158.209-.471.209-.731.158-.158.21-.524.158-.838a.891.891 0 0 0 .209-.73c.262-.316.106-.785.368-1.152v-.156c.21-.104.158-.417.21-.575.208-.104.104-.365.157-.575.209-.052.157-.365.209-.574.209-.053.157-.367.209-.575.21 0 0-.263.157-.367 1.258-2.875 2.462-5.853 4.139-8.52 3.457-6.01 7.229-11.815 10.58-17.877.106-.629.523-.942.681-1.569.262-.366.524-1.62.942-.835" fill="#FFCA05"></path><path d="M61.585 19.19c1.886 2.825 3.821 5.491 5.342 8.522 1.938 2.876 3.248 6.327 4.506 9.618 1.777 3.922 2.461 8.626 3.088 13.121a32.442 32.442 0 0 1 0 4.55c-2.464 1.932-3.193 5.277-5.812 6.897h-1.048c-.262-.103-.471-.311-.734-.47a2.752 2.752 0 0 1-.733-1.828h.054c.26-.629-.265-1.36.104-1.778v-.157h.051c.262-.68-.104-1.098-.157-1.725.053-.575-.68-.835-.471-1.41.42 0 .84 0 .942-.368-.21-.993-.942-1.724-1.571-2.455.788-.367 1.52-.733 2.097-1.464.05-.263-.107-.367-.262-.471-.84 0-1.575-.052-2.357-.105v-.051c-.369-.053-.682-.158-1.104-.105-.156-.209-.47-.157-.731-.209-.316-.262-.838-.157-.997-.575-.207-1.569-.207-3.346-.26-5.07-.052-1.987-.21-4.183-.158-6.012l-.103-.209c.052-1.777-.157-3.71-.055-5.228-.051-.158-.26-.26 0-.314l-.051-.104c-.158-4.862-.314-8.835-.314-13.8.316.26.576.785.734 1.202v-.001zm-1.624 2.145c-.21.157.104.262.053.366v9.149a.11.11 0 0 0-.105.104c.367-.209.263.26.316.523-.107 0-.107.05-.158.104.26.158.105.575.158.836-.107 0-.107.053-.158.104.26.209.105.68.158 1.045-.107 0-.107.053-.158.053l.158.21c-.053 3.345 0 7.056.155 10.454-.053 0-.104.053-.104.053l.104.26c-.053 0-.104.053-.104.053 0 .052.051.105.104.105l-.104.104c.209.21.051.627.104.94-.053 0-.104.054-.104.054.209.522.051 1.306.104 1.933-.053 0-.104.053-.104.104v.158c-.42.105-.473-.366-.89-.262-.263-.051-.42-.313-.734-.365v-3.137c.051.053.051 0 .105-.051-.158-.105-.158-.263 0-.367-.054-1.253.05-2.562.208-3.711-.05-.104-.208 0-.157-.104v-.21h.053l.158-4.757h.05c.107-2.927.316-5.646.316-8.624h.053c-.053-2.878.418-5.438.314-8.26.157 0 .157-.157.157-.262 0 1.151-.053 2.562.052 3.398zm-.891-2.614c-.051-.05-.105 0-.105.054l.105.26h-.051l-.158 3.815c-.053 0-.053 0-.104.054 0 .05.05.104.05.104l-.104 2.98h-.05l-.159 3.449h-.053l-.104 3.713c-.105-.053-.105 0-.158.051.053 0 .053.051.158.051l-.158.211-.051 3.136h-.053l-.158 3.137c-.158.21-.209 1.098-.158 1.725v1.149c-.051 0-.102 0-.155.053.104.209.157.366.157.627-.053 0-.104.053-.157.053.262.051.104.364.157.522l-.157.158c-.054 1.202.21 2.562-.42 3.397-.942.105-1.729.314-2.25.994 0 .26-.367.209-.474.313-.262-.158-.68-.209-1.1-.158v-.05c-.942-.054-1.99-.263-2.828-.105-.733.364-1.36 1.044-1.624 1.829-.262.366-.104.73-.157 1.202.21.418.42.784.786 1.044.367.053.473.473.838.473.21-.262.104-.524.262-.786.366-.051.524.158.682.315.784.627 1.517 1.307 2.306 1.83.155.208.364.417.522.575.89.835 1.833 1.62 1.728 3.082-.262 0-.053.315-.209.42-.42.94-1.31 1.462-2.043 2.142-.052.262.21.838-.316.68-.418.315-.889.367-1.36.522-.315-.157-.89-.209-1.31-.209-.316-.157-.733-.262-.995-.575-.418-.26-.471-.785-.996-.94-.209-.471-.68-.68-.837-1.151-.787-.785-1.362-1.725-2.2-2.405-.262-.366-.473-.784-.733-1.044v-5.802h.051l.105-1.569h.106l.105-1.098h.05l.159-1.36h.05c.054-.313.159-.626.107-1.044.158-.158.21-.522.21-.838.157-.104.157-.417.157-.678a.95.95 0 0 0 .209-.784c.157-.158.209-.471.209-.733.157-.158.21-.47.157-.731.262 0 .054-.314.21-.418.106-.418.419-.731.366-1.256.21-.313.315-.68.42-1.044 2.514-6.69 6.6-12.233 10.161-18.297.42-.782.84-1.724 1.362-2.404v1.36z" fill="#FFCA05"></path><path d="M101.71 45.903c0 .367.155.629.155.942-.156.316-.156.68-.365.94-1.728 1.727-4.35 2.145-6.602 2.98-3.35.942-7.123 1.36-10.686 2.04-1.622 1.516-3.506 3.084-5.865 2.98l-.16.158c.107.31.42.31.736.26-.316 1.149-1.469 1.36-2.357 1.829-.472.208-1.205.05-1.573.366.157.365.733.105.837.47-.313.992-1.357 1.517-2.408 1.672-.053.263.211.158.317.316h.627c0 1.096-1.26 1.513-2.097 1.931-.102.053-.573.211-.315.473.37.103.84.207.948.522 0 .314-.473.418-.422.783-.733.473-1.046 1.675-2.357 1.098-.158-.207-.418-.418-.418-.785.315 0 .418-.209.733-.313.207-.627-.526-.783-.684-1.202-.262-.052-.262-.365-.575-.26-.051.417.422.784.473 1.253-.367.209-.893.104-.893.575.107.21.473.262.42.627.053.262-.471.105-.733.105v-.052l-1.415-.104c-.158-.158-.473-.21-.733-.21-.158-.157-.523-.419-.207-.628.575-.26 1.515.367 1.515-.573-.362-.262-.469-.942-1.046-.994-.262.418.209.523.053.94l-1.255-.05c0-.105-.105-.158-.213-.105h-.158c-.207.364.266.573.315.94-1.673-.418-2.826-1.673-4.085-2.509-.315-.262 0-.522.158-.731.264.104.368.418.526.573-.109.367.364.316.26.68l.42.471c.63-.417.786-1.517 1.568-1.464.42.522.893.993 1.573 1.151.211-.315.369-.629.576-.942.788.524 2.201 1.098 3.194.42 2.568-1.987 3.25-5.593 6.183-7.213.42.05.577-.263.89-.42 2.042-.836 3.77-2.144 5.657-3.189 1.101-.367 1.939-1.044 3.194-1.202 5.24-1.36 10.217-3.031 15.191-4.862.473-.051.789.158 1.102.315" fill="#6F3D22"></path><path d="M102.808 45.852c.315.21.63.316.89.576 4.61 2.769 7.019 7.788 7.912 13.381.209 1.254.155 2.352.05 3.658h-.05l-.107 1.256h-.053l-.158 1.149c-.155.157-.209.524-.155.837-.42.207 0 .994-.42 1.254v.157c-.158.105-.21.367-.158.576-.207.262-.315.627-.47.94-.838 1.986-1.78 3.869-3.247 5.437-.89.94-1.675 1.882-2.723 2.823-1.52.888-2.724 2.35-4.297 3.084-1.153.522-1.99 1.36-3.09 1.829-.209-.051-.315.104-.473.104v.107h-.102c.315-3.765-.578-7.007-1.94-9.882-.418-.209-.522-.782-.89-.993 0-.053 0-.158-.052-.21-.21.054-.21-.26-.315-.313-1.202-.993-2.462-1.933-4.139-2.195-.313-.158-.837-.158-1.15-.21a9.486 9.486 0 0 0-2.411 0l-1.255.106c.47-.994 1.255-1.516 2.305-1.883.627-.104.785-.993 1.413-1.044.158-.367.63-.158.942-.209.158.158.525.209.838.209.209.209.733.051.944.364 2.357.68 3.928 2.405 5.447 4.238.68.938.942 2.14 1.413 3.238.42 1.464.473 3.137.42 4.862l.105.209c3.928-2.405 7.333-5.907 9.428-9.984.367-.523.63-1.15.788-1.831.156-.103.207-.314.156-.576a.944.944 0 0 0 .209-.782c.158-.158.209-.418.209-.678h.053c.524-2.824.418-6.326-.629-8.68-.05-.469-.209-.68-.315-1.044-1.15-2.771-3.404-5.124-5.918-6.796-.21-.94.89-1.306.733-2.3.106 0 .106-.053.158-.104-.21-.104-.105-.418-.158-.68h.262z" fill="#FFCA05"></path><path d="M59.456 61.3c.315-.21.296-.289.034-.76-.158-.05-.054-.626-.473-.417-.418.209-.836.886-1.309 1.044-.471-.313.158-1.567-.784-1.515-.054.417-.054.888-.473.942h-.26c0-.054-.054-.105-.054-.105a.11.11 0 0 0-.104.105c-.211-.262-.733 0-1.049-.158.682-.418.891-1.253 1.52-1.724-.051-.576.366-.89.104-1.518-.209-2.351-2.828-3.187-4.138-4.809-.471-.209-.838-.573-1.205-.94.473 0 1.1-.053 1.258.315-.053 0-.158 0-.158.052.262.469.787.626 1.415.626v.052c.367.157.944.106 1.204-.105.211-.157.211-.469.211-.731-.577-.731-1.153-1.307-2.201-1.202-.209-.158-.524-.21-.838-.21-.053-.208-.366-.052-.575-.104l-.369.314c.211.209.578.053.891.104-.051.054 0 .105.053.158h.21c-.892-.053-1.73-.053-2.149.678-.209.106-.104.42-.209.629-.051 0-.104 0-.104.05 0 0-.316-.157-.21-.417-.157-.367-.261-.627-.104-1.098.21-.26.262-.626.471-.94.996-1.098 2.67-.262 4.086-.366 0 .262.262.053.315.209.313.47.576.993 1.047 1.41.053-.104.366-.208.157-.417h-.053v-.053c.105 0 .209.21.42.106.158-.106.158-.42.104-.575-.262-.158-.053-.734-.473-.734-.209 0-.313.107-.313.316v.26c-.158-.051-.26-.313-.104-.47.473-.732 1.257-1.046 2.199-1.201-.051.104 0 .104.053.155.158-.157.733 0 1.049.052.104.21.417.157.575.21 0 .21.315 0 .367.158a6.553 6.553 0 0 0 1.886.783c.104.208.42.104.575.157.158.21.473.21.682.21.105.208.418.104.629.157v.102c.889.105 1.57.262 2.461.316 0 .313-.42.364-.628.469-.42-.105-.42.262-.789.157-.207-.157-.573-.262-.835-.157.366.47.837.837.89 1.464H64.1c-.053-.262-.366-.053-.524-.209-.315-.104-.682-.209-1.046-.367-.158.21.05.418.05.627h.054v.211c-1.102-.315-1.94-.942-2.828-1.569-.944-.628-2.148-1.202-3.51-.784.051.313.418.418.367.836.262.47.733.68 1.257.784v.104c.784.263 1.36-.26 1.99-.26a6.138 6.138 0 0 0 3.142 1.671c-.051.105.053.158.158.158.315.105.262-.315.473-.315-.158-.416.208-.416.469-.416v.104c.157.105.366.052.577.052.209-.105.262-.576.576-.314.21.367.575.887.42 1.203h-.367v-.105c-.367 0-.733-.209-1.153-.051.315.627.995 1.044 1.153 1.776.209.366.418.68.313 1.255-.837 0-.89-1.045-1.624-1.202 0-.053-.051-.105-.051-.105-.682.158-.89.94-1.415 1.254-.42-.47-.315-1.307-1.1-1.36-.575.262-.733.942-1.362.942l-.682-1.045c-.417-.157-.47.314-.733.365l-.942.784c-.733-.887-.995-2.613-2.514-2.664-.052-.262-.367-.262-.576-.262 0-.054-.053-.054-.053-.105-.262-.104-.262.158-.367.262.158.836 1.362.314 1.415 1.203 1.1.364 1.204 1.62 1.884 2.298h.211c-.21.784-1.153 1.044-1.257 1.83.524.21.733-.366 1.204-.522.315-.104.262.209.367.365.262.209.315.68.786.575.209-.418.682-.68.89-1.044.63.157.734.94 1.31 1.253.786-.051.786-.835 1.361-1.149.63.47.63 1.776 1.729 1.516.315-.262.315-.942.786-.89.158.419.63.628.733 1.099v1.253c-.262.053 0 .68-.418.524-.053-.418-.473-.418-.63-.68-.316-.209-.471-.522-.838-.73-.522.313-.471.94-.942 1.306-.42.157-.315-.367-.524-.42-.158-.522-.262-1.253-.838-1.36-.315.473-.629 1.256-1.204 1.151-.158-.26-.315.105-.577.105l-.243.027z" fill="#FEFEFE"></path><path d="M59.36 61.593c-.944 1.15-1.912 1.77-3.327 2.398-.053-.418.315-.942.473-1.36-.158-.262-.422-.104-.526.051-.785 0-1.57-.05-2.306.054-.102.262.158.262.264.366h1.57c.088.485-.117.976-.523 1.254-1.205.157-2.095.68-3.35.784.05-.73.68-1.044.888-1.567-.473-.628-.942.103-1.624-.157-.262-.21-.68-.262-.942-.471-.104 0-.315-.105-.315.104.053.418.473.418.682.68h.262c.104.418 1.046-.104.733.522-.262.262-.367.942-.786 1.045-1.782.366-2.933-.47-3.981-1.305.366-.524 1.415.051 1.832-.524-.733-.418-1.466-.73-2.2-1.098-.419-.418-1.099-.678-1.308-1.253h.262c.158.157.471.209.732.157 0 .105.053.105.053.158l.262-.264c-.89-.94-2.515-1.045-2.881-2.509.42 0 .89.053 1.31-.051-.104-.418-.524-.367-.89-.473 0-.207-.316 0-.42-.156h-.785c-.053-.209-.366-.157-.524-.209 0-.26-.315 0-.42-.157-.315-.365-.942-.416-1.1-.887.054 0 .21.051.263-.053v-.105l.104.158c.053-.053.053-.053.053-.158l.158.158c0-.053.051-.053.051-.158.053.262.42.105.629.158.104-.105 0-.316-.053-.316-.158-.05-.262-.155-.471-.155-.158-.158-.576-.158-.891-.158v-.051c-.315-.051-.629-.21-.995-.158-.052-.209-.367-.102-.576-.158-.053-.206-.366-.155-.524-.206 0-.263-.315-.054-.42-.21-1.1-.366-1.78-1.36-2.828-1.881-.315-.105-.522-.523-1.047-.367v-.051l-1.31-.105v-.104l-1.309-.105c-.209-.157-.524-.21-.837-.21v-.052c-.367-.053-.682-.157-1.049-.104-.262-.158-.628-.21-.942-.21-.157-.157-.473-.157-.63-.261-.314 0-.627-.158-.943-.105-.157-.157-.47-.209-.733-.209-.157-.157-.47-.209-.733-.157-.104-.156-.366-.21-.575-.21-.105-.157-.316-.208-.578-.157-.051-.156-.315-.26-.522-.207-.053-.262-.369-.053-.473-.209a140.059 140.059 0 0 1-4.241-1.675c-.158-.156-.42-.156-.578-.311-.473-.471-.995-.785-.786-1.622.158-.365.42-.418.735-.627.733-.051 1.204.315 1.78.418.106.158.366.209.577.209.105.157.367.21.576.157.262.263.628.263.995.418h.209c.158.158.473.21.733.158.158.158.473.209.788.209.26.262.785.104 1.098.364h.211c.051.211.365.158.575.211.105.158.42.158.682.158.158.156.471.207.733.207.105.209.418.104.627.158.158.157.42.262.682.208.158.158.473.21.786.21.158.157.471.208.734.157.366.209.68.365 1.15.365h.158c.21.157.524.262.838.209.157.157.42.21.682.21.262.21.837.052 1.1.365h.208c.316.158.578.367 1.049.367 3.037 1.515 5.552 3.764 8.8 5.07.63.314.943.836 1.361 1.412.787.626 1.204 1.462 1.833 2.246.995.942 1.833 2.3 3.248 2.562h.209v.052c1.468.053 3.092-.052 4.087-.992.418-.366 1.203-.104 1.729-.262.157.367.209.887.575.993.787.052.806-.798 1.695-.587l.428-.033z" fill="#6F3D22"></path><path d="M17.271 48.256c.263.313.525.731.316 1.255-.211.158-.053.627-.369.732-2.775 1.986-5.027 4.808-6.231 7.997-.211.053-.158.367-.211.522-.158.158-.21.473-.158.785h-.051c-.053.366-.21.68-.158 1.044h-.051c-.211.473-.107 1.047-.107 1.569h-.104c-.209 1.151.158 1.987.21 3.084.052 1.098.419 1.987.838 2.876.942 2.877 2.67 5.28 4.557 7.528.682.836 1.675 1.358 2.357 2.198.944.624 1.675 1.566 2.881 1.827.105-1.307.262-2.354.316-3.71.26-.108 0-.575.157-.786.26-.157.052-.575.207-.784.262 0 .053-.262.211-.367.576-1.36 1.413-2.77 2.408-3.868.42-.26.682-.676 1.153-.836 2.044-1.464 4.61-2.3 7.596-2.196.262.211.473.418.786.523.942.108 1.309 1.15 2.2 1.568.42.158 1.046.21 1.153.732v.106c-.473.051-.682-.262-1.153-.21a.935.935 0 0 0-.787-.208c-.315-.21-.89-.106-1.204-.315 0 .053-.053.053-.053.104-.68-.157-1.675-.104-2.462-.05-3.77.521-6.913 3.397-7.7 7.108-.208.158-.208.473-.208.731-.158.209-.158.68-.263.942-.053.365-.157.682-.104 1.098h-.053l-.158 2.247h-.051c-.262.944.262 1.62.051 2.615-.209.053 0 .573-.418.364-8.015-3.868-14.562-11.393-15.45-20.91a.112.112 0 0 0 .102-.104c-.21-.47-.052-1.254-.105-1.88.211-.054.053-.367.105-.525 0-.051-.052-.104-.105-.104.262-.574 0-1.411.158-2.09.18-.24.254-.541.209-.837.262-.315.106-.784.366-1.149a16.602 16.602 0 0 1 5.554-7.686c.89-.991 2.148-1.567 3.248-2.247.575.052.209.994.575 1.307" fill="#FFCA05"></path><path d="M20.832 48.101c0 .26.315.051.42.207.575.42 1.36.524 2.041.733.107.21.369.158.578.21 0 .261.262.05.366.208.473 0 .787.418 1.31.367.104.208.419.157.575.157.157.156.42.26.681.207.158.158.473.211.787.211.157.156.575.156.733.209.575.158.942.313 1.517.313.211.21.736.21.998.26.315.054.575.21.889.158v.051l1.152.105v.053l1.311.158c.158.209.838 0 .784.417-.942.158-1.728-.208-2.723-.157a1.477 1.477 0 0 0-.942-.21v-.05c-.367-.054-.631-.158-1.049-.158-.209-.158-.628-.158-.837-.209-.316-.053-.525-.209-.838-.158-.104-.155-.42-.155-.682-.155a.95.95 0 0 0-.784-.21c-.053-.208-.42-.104-.63-.208 0-.209-.314 0-.419-.158-.524-.051-.786-.47-1.36-.366a.584.584 0 0 0-.577-.21c-.21-.208-.733-.05-.89-.364-.683-.21-1.416-.575-2.149-.784-.262-.105-.524-.316-.786-.42-.418-.156-.89-.156-.89-.627.472.105.996.262 1.414.42m79.147-.524c.052.418-.63.104-.73.47-4.508 1.779-9.431 2.72-14.46 3.503-.052-.104-.263-.262 0-.313 5.396-.627 10.319-2.247 15.19-3.66" fill="#231F20"></path><path d="M20.52 50.401c.521.156 1.046.365 1.57.522.104.158.366.26.577.21.365.208.68.364 1.151.364.262.262.63.315 1.049.366.575.054.942.471 1.57.418.316.262.787.158 1.205.367.21-.053.368.104.368.315-.158.416.314.574.26.73-.837.419-1.99.052-2.879.052l-1.52-.104c-.208-.158-.577-.209-.944-.209-.157-.158-.47-.209-.733-.158-.157-.157-.47-.208-.733-.208-.051-.158-.315-.21-.524-.158-.315-.207-.629-.313-.942-.47a2.537 2.537 0 0 1-1.675-1.41c-.158-.418-.211-1.256.104-1.569.68.262 1.466.522 2.095.942zm80.61-.471c-.26.051-.05.367-.208.469-.522 1.1-1.466 2.091-2.83 2.249-2.093.575-4.554.68-7.071.626-.26-.104-.416-.313-.314-.626 1.258-.576 2.673-.731 4.088-1.098 1.833-.313 3.297-1.253 5.08-1.778.474-.157.785-.835 1.258-.573v.729l-.004.002z" fill="#6F3D22"></path><path d="M54.924 50.533c-.164.404-.74.301-.986.1v-.808c.327 0 .822.304.986.708" fill="#231F20"></path><path d="M103.016 50.92c.788.787 1.624 1.414 2.15 2.354.942.993 1.415 2.195 1.99 3.398.734 1.882 1.153 4.08.891 6.43l-.157 1.256c-.211.155 0 .573-.158.835-.21.21-.158.627-.21.94h-.052c0 1.411-.889 2.196-1.257 3.398-1.887 3.033-4.348 5.802-7.436 7.842.049-2.771-.84-5.018-2.044-7.058-.418-.575-.995-1.044-1.413-1.568 0-.259-.37-.21-.475-.418-1.309-1.36-2.775-2.405-4.661-2.822h-.315c-.05-.262-.365-.054-.525-.21-.05-.208.107-.366.263-.47.632-.314 1.363-.627 1.832-1.202.316-.887 1.155-1.203 1.94-1.57 1.05-.468 1.257-1.566 1.783-2.455 1.047-.315 2.042-.993 2.464-2.09 0-.159.047-.474.047-.734.264-.051 0-.365.158-.522a3.81 3.81 0 0 0 2.2-2.3c.157-.68-.101-1.569.732-1.778.475-.573.79-1.202.997-1.986.631-.105.68.68 1.256.733" fill="#FFCA05"></path><path d="M58.118 51.75c-.37-.122-.864-.615-.986-.985.247.246.615.739.986.985zm-5.229-.985c.158.262.576 0 .786.157.316.158.63.314.942.523 0 .209.263.418 0 .522-.157.104-.366.053-.575.053.315-.157.209-.522.051-.68-.26-.104-.418-.418-.784-.315-.158-.207-.578-.207-.787-.26h.367z" fill="#FEFEFE"></path><path d="M56.87 51.55c.576.731 1.782.731 2.62.522 0 .053.053.105.104.105-.051 0-.158.366-.418.209-.524.157-1.257.262-1.73-.052-.313-.262-.995-.522-.889-1.097.209 0 .209.157.315.313" fill="#231F20"></path><path d="M59.123 51.246c-.158.926-.575.772-.89.926l-.105-.31c.473.466.524-.772.995-.616" fill="#FEFEFE"></path><path d="M17.847 51.759c.42.47.944.837 1.415 1.202.209.418-.158 1.622.315 2.142.365 1.256 2.25 1.151 2.042 2.72.473.836 1.257 1.569 2.2 1.778 0 .209.262.104.42.209.417 1.36 1.57 2.404 2.985 2.72.367 1.253 1.57 1.88 2.828 2.035.315.524.733 1.202 1.362 1.413v.158c-.63-.106-1.1.156-1.782.26-3.403.731-6.704 2.82-8.275 5.96-.367.522-.576 1.306-.733 1.984-.21.21-.21.68-.262.942-.105.887-.316 1.567-.316 2.51-.522-.158-.889-.576-1.255-.943-4.4-3.606-7.44-8.466-7.7-14.424h.104l.105-1.36h.051c.053-.367.158-.68.158-1.1.157-.157.21-.469.157-.73.158-.105.211-.367.211-.576.21-.314.314-.68.47-.994.315-.94.89-1.67 1.414-2.508 1.049-1.36 2.149-2.771 3.564-3.711.26-.054.522 0 .522.315" fill="#FFCA05"></path><path d="M35.865 55.26c.21.21.733.054.89.367.367.262.996.316 1.205.731-1.675.471-4.452 1.307-5.918 0-.158-.26-.473-.364-.42-.73.682-.105 1.52.05 2.252-.105.263-.053 1.207-.053 1.676-.262h.315zm47.72 0v.054l1.31.157v.052c.837.104 1.726.157 2.46-.053.053.575-.68.837-1.152 1.044-.628.369-1.624.21-2.357.158-.157-.26-.63-.052-.89-.21-.158-.157-.474-.208-.734-.208-.207-.209-.837-.158-.575-.627.524.158.68-.418 1.044-.522.213.158.578.158.893.158v-.002zm-62.753-1.882c.104.21.42.158.577.21.158.157.418.21.68.157.158.209.576.209.786.262.316.051.576.21.942.158v.051c.576.158 1.207.105 1.887.105v.05l3.194.105c.63.316.891 1.098 1.675 1.151l.211.26c-.315.316-.89.21-1.308.316-.891.26-2.464 0-3.093.26 0-.051-.05-.105-.05-.105-.054 0-.105.054-.054.105l-.158-.105s-.05.054-.05.105c-.263-.367-.316.209-.68 0v-.051l-2.464-.158v-.051c-.367-.054-.68-.158-1.047-.107-.315-.26-.682-.26-.944-.522-.47-.68-.995-1.253-.784-2.247l.68.051zm78.572-.417c.051 1.255-.944 2.195-1.94 2.77-.366 0-.42.314-.786.314-.731.158-1.466.053-2.306.158-1.464.26-1.988-.158-3.559-.105 0-.053-.053-.104-.053-.157-.367.053-1.309.053-1.782-.21-.209.054-.311-.157-.418-.261-.053-.574.576-.47.787-.836.995-1.518 3.403-.209 4.923-.887l.104.156c.527-.21 1.31-.105 1.782-.316 1.1-.157 2.148-.469 3.248-.626zm-69.562.053v.051c.316.053.629.209.995.158v.051c.367.053.68.158 1.1.104v.054l1.466.157c.105.26.473 0 .63.156.523.158 1.046.471 1.152 1.045-1.415-.052-2.515.315-3.98.157v-.053c-.368-.051-.683-.156-1.05-.102-.417-.63-.941-1.151-1.308-1.727.209-.26.629.053.995-.051zm60.027-.367c.106 1.098-1.044 1.36-1.622 1.936-.995.26-2.201.573-3.301.26l-1.1-.051c0-.263-.315-.054-.364-.21.626-.68 1.044-1.464 2.304-1.308 1.255-.104 2.305-.26 3.403-.627h.68z" fill="#6F3D22"></path><path d="M59.907 57.038c.682.315.891-.627 1.469-.68.68.105 1.153 1.62 1.78.522.42 0 .472-.729.995-.469.366.418.84.94 1.31 1.256 0 .469.316.626.21 1.096-.576-.105-.68-.68-.892-1.096-.418-.262-.366.416-.575.573.053.316-.262.367-.21.68-.474-.209-.943-.731-1.205-1.202-.26-.367-.471-.104-.838 0 .158.575-.522.68-.68.993-.788-.157-.733-1.517-1.675-1.255-.106.366-.368.522-.577.68-.262.209-.42-.053-.473-.315-.105-.312-.26-.678-.523-.834.471-.262.785-1.045 1.415-.942.052.418.367.627.47.993" fill="#FEFEFE"></path><path d="M41.574 58.292c.158.21.631.053.734.366 0 .316.315.523 0 .68-.418.263-.785.316-1.258.471-.628.418-1.833.21-2.619.418h-.942c-.209-.209-.786-.053-.995-.366-.158-.158-.576-.105-.68-.365.262-.473 1.202-.158 1.675-.42 1.415-.05 2.515-.469 3.719-.835.104.104.262.053.366.053m46.933.731c.16.209.578.105.735.313.26-.053.471.158.733.054.26.209.736.209.943.26.995.262 2.148.104 3.25.157.049.887-.789 1.412-1.364 1.934-.682.262-1.782.315-2.568.157-.158-.157-.576-.157-.89-.157-.157-.158-.472-.21-.734-.21-.365-.208-.733-.261-1.151-.417-1.256-.366-2.306-.942-3.353-1.62.158-.21.158-.473.418-.629.789 0 1.104-1.253 1.782-.522.733.262 1.415.576 2.2.68m-10.005-.942c.263.106.475.42.891.367h.318c.155.208.624.208.833.262.944.104 1.782.313 2.673.313.05.731-.734.887-1.258 1.149-.473.315-1.098-.051-1.728.053v-.053c-.365-.051-.68-.158-1.047-.158-.157-.155-.473-.207-.733-.155-.106-.21-.47-.105-.629-.21-.368-.208-.786-.26-1.101-.468-.207-.42.157-.629.368-.785.523-.053.838-.473 1.413-.315m-38.29-.418c.104.053.053.21.053.316-1.573.417-3.04.94-5.03.729-.262-.052-.417-.312-.733-.365-.104-.262-.418-.209-.366-.522 1.576-.15 3.125-.5 4.611-1.045.73-.21.836.783 1.465.887m-8.067-.313c.315.158.576.366.89.575-.261.471-1.048.314-1.517.627-.577.158-1.048.104-1.626.315 0 .156 0-.106-.05-.106-1.573.522-3.615.367-5.397.315-.209-.21-.784-.053-.942-.366-.682-.262-1.257-.785-1.257-1.62.157-.42.366.313.575-.107l.158.107c2.724.104 5.814.157 8.17-.316.42.107.578.523.996.576m56.152-1.15c.158.21.576.105.733.314.316-.053.473.158.787.051v.105c2.095.366 4.66.366 7.018 0 .053 0 .158.21.158.42-.734 1.253-1.936 2.142-3.615 2.142v.051l-.104-.102c-.054.209-.367.051-.525.102v-.051c-.524-.158-1.204 0-1.728-.158-.158-.157-.47-.209-.786-.157-.158-.156-.576-.207-.89-.207-.052-.158-.315-.21-.521-.158-.056-.262-.369-.051-.475-.209-.367-.053-.627-.315-1.1-.366-.314-.26-.887-.26-.942-.68.682-.26 1.31-.783 1.99-1.096m-8.117 0c.313.209.681.364.993.522.422.051.733.209 1.153.26v.053l1.466.105v.053l1.31.158c-.104.678-.89.835-1.414 1.202H82.33c0-.106-.057-.106-.057-.158-.418.052-1.254-.053-1.831-.262h-.211c-.105-.157-.42-.157-.68-.157-.107-.158-.317-.21-.576-.21-.16-.573.734-.73.785-1.36.209-.05.157-.31.418-.206" fill="#6F3D22"></path><path d="M105.06 59.338c-.158.209-.158.68-.207.889-.055.262-.213.522-.16.835h-.053c-.05.367-.158.68-.104 1.045h-.103c0 .42-.21.89-.053 1.309.837.94 2.097 1.462 2.672 2.508-1.048.367-2.308.576-3.407.838-.783.103-.678.993-.994 1.516-.315.784-.735 1.515-1.1 2.3-.419.104-.419-.63-.732-.89-.631-.888-.996-1.986-1.886-2.666h-.527c0-.104 0-.104-.049-.157-.106.053 0 .21-.106.157h-.21v-.104l-3.038-.105c-.053-.262-.367-.051-.524-.207.944-1.1 2.41-1.728 3.352-3.035-.105-1.566-.68-2.769-.942-4.233.995.209 1.833.627 2.621 1.098.627.104 1.516.993 2.042.053 1.204-.629 2.2-1.622 3.508-2.04v.889z" fill="#231F20"></path><path d="M34.766 59.392c-.053.104 0 .104.053.157.21-.053.314.156.367.365-.158.418-.733.522-1.206.627-2.148.731-4.661 1.255-7.28.993 0-.262-.263 0-.367-.158-.577-.208-.942-.782-1.153-1.41 2.935-.26 5.867-.418 8.382-1.307.315.262.733.628 1.204.733" fill="#6F3D22"></path><path d="M22.51 59.913c-.212.21-.212.68-.263.94-.106.68-.315 1.098-.315 1.83h-.051c-.054.366-.211.733-.158 1.1 1.048.886 2.253 1.566 3.09 2.612-.262.369-.733.523-1.308.523-1.1.157-2.095.264-3.195.42-.682 1.2-1.31 2.3-1.782 3.604-.366.315-.524-.209-.682-.364-.366-.94-.786-1.936-1.15-2.878-.474-.416-1.207-.311-1.887-.311v-.051l-1.517-.158v-.053c-.369-.21-1.104.157-1.26-.314.996-.993 2.358-1.724 3.144-2.926-.158-.316-.158-.785-.209-1.151-.315-.94-.473-2.09-.63-3.136 1.205-.104 1.885.887 2.83 1.307.47.209.837 1.149 1.466.522 1.1-.731 2.2-1.464 3.352-2.091l.524.053v.522z" fill="#231F20"></path><path d="M104.067 59.705a25.8 25.8 0 0 1-2.78 3.764c-.208-.576-.05-1.413-.104-2.198.891-.626 1.833-1.149 2.83-1.67 0 .05.052.104.052.104" fill="#FFCA05"></path><path d="M84.738 60.594c.782.418 1.517.887 2.513 1.098.104.157.42.157.682.157.104.207.473.207.626.26.997 0 1.52.576 2.568.523.21.366-.157.575-.315.835-.576.89-2.304.524-3.193.316-.157-.158-.42-.211-.682-.158-.315-.209-.628-.367-1.046-.367 0-.26-.262-.05-.37-.209-1.256-.417-2.512-1.044-3.507-1.88.051-.21.26-.315.418-.42.733.105.944-1.097 1.675-.417l.63.262zm-40.961-.053c.157.209-.158.315-.211.417-1.571.471-4.086.838-5.499-.05 1.57-.21 3.09-.472 4.557-.994.628-.158.68.522 1.153.627zm32.841-.732c0 .21.315 0 .42.158.47.209.889.365 1.466.365.207.209.733.209.995.262.367.051.68.209 1.047.157.106.207.42 0 .577.156-.42.68-1.468.836-2.357.627v-.051c-.366-.107-.733-.054-1.1-.107-.106-.26-.42-.104-.63-.207-.209-.21-.784-.053-.993-.366-.262.104-.262-.21-.42-.21.262-.208.473-.888.995-.784z" fill="#6F3D22"></path><path d="M20.99 60.645c-.733 1.202-1.467 2.353-2.357 3.397v-1.986c.786-.523 1.466-1.098 2.357-1.411zm83.337.313c-.157.262-.157.733-.262.942-.053.26-.158.47-.104.784-.21.314-.262.627-.787.678-.366.105-.68.316-1.15.316.628-1.151 1.412-2.247 2.25-3.347l.053.627zm-5.762-.627c0 .262.262.054.366.21.578.575 2.253.261 1.675 1.777.264.051.107.418.158.627-.104-.052-.158.053-.158.104v.21c-.313-.314-.469-.679-.942-.941-.315-.731-.942-1.202-1.308-1.987h.209z" fill="#FFCA05"></path><path d="M37.437 61.534c-2.462 1.255-5.184 2.247-8.485 2.089-.42-.311-.837-.678-.942-1.252.105 0 .21.052.26-.053v-.104l.107.157c.366-.157.942-.157 1.413-.262a23.222 23.222 0 0 0 5.814-1.464 2.786 2.786 0 0 1 1.833.889" fill="#6F3D22"></path><path d="M15.96 62.056c.42.68 1.207 1.464 1.311 2.144-.209-.21-.575-.21-.89-.21-.158-.208-.63-.052-.734-.366-.053-.73-.209-1.15-.315-1.829l-.158-.575c.473.051.42.575.789.836h-.002zm84.229 1.568h-.995c-.105-.209-.471-.104-.629-.209-.575-.68-.522-1.673-.784-2.562.995.734 1.57 1.83 2.408 2.771zm-78.466-2.562h-.053l-.104 1.098c-.18.28-.255.613-.21.942-.104.313-.261.627-.575.784-.473.052-.84.365-1.415.365.473-.94 1.1-1.829 1.729-2.718.104-.262.366-.575.628-.68v.21zm-3.563 1.256v1.673c-.156.158-.313-.053-.313-.209a20.7 20.7 0 0 1-2.095-3.033c.733.575 1.886.731 2.41 1.569h-.002z" fill="#FFCA05"></path><path d="M40.79 64.2c.158.21.576.418.576.732a19.701 19.701 0 0 1-6.392 2.195c0 .158.054-.053-.05-.053-.159.16-.683-.051-.996-.051-.209-.263-.578-.471-.629-.836.42-.367.995-.315 1.57-.524 1.207-.26 2.307-.678 3.458-1.045.682-.366 1.31-.784 2.148-.887l.315.47zm39.284-.262c.733.576 1.573.836 2.568 1.256.576.469 1.36.626 2.095.784.105.209.473.209.63.26.208.158.523 0 .732.158-.106.887-1.204.784-1.886 1.044-.104-.104-.262-.05-.367-.05-.157-.159-.473-.21-.786-.21 0-.264-.262 0-.366-.157-.943-.471-2.095-.627-2.882-1.36-.47-.365-1.255-.627-1.202-1.36.47-.156.524-.73.993-.73l.473.365h-.002zm-33.836-.784c-.21.366-.84.315-.891.837.157.105.418.105.418.314-.68.573-1.99.209-2.984.313a1.784 1.784 0 0 1-1.364-1.044c1.364-.054 2.779-.158 3.93-.629.366-.051.784-.051.89.209zm27.973-.365c.158.158.416.21.678.21.105.157.473.157.63.261.783.052 1.674.103 2.307.156.155.053.205.053.52.158.053.26-.262.364-.42.469-.26.209-.837.104-1.15.315-.631-.262-1.625 0-2.307-.158 0-.262-.315-.053-.417-.209.104-.157 0-.315.16-.42l-.738-.573c.262-.104.42-.418.735-.209h.002zm-34.678.47c-1.729 1.044-3.615 1.464-5.554 2.04l-.104-.105c-.21.157-.629.157-.942.26l-.787.053c0-.262-.315-.053-.418-.209-.473-.158-.63-.418-.89-.784-.105-.418.313-.21.473-.316 1.517-.26 2.93-.729 4.45-1.095.786-.367 1.624-.732 2.463-1.098.576.158.89.836 1.309 1.253zm42.69-1.045c.837.575 1.886.993 2.88 1.36.265.209.683.26.996.417.209.052.367.158.576.105.053.209.366.158.577.209.156.158.471.209.731.209.053.209.578 0 .369.418-.578.784-1.573.94-2.673.73-.524-.05-.837-.364-1.413-.364-.262-.209-.63-.315-.942-.418-1.101-.575-2.412-.993-3.092-2.09.42-.576 1.362-1.465 1.99-.576zm-37.399 0c.156.47-.473.209-.526.47-1.413.105-3.719.732-4.61-.523.734-.158 1.573-.052 2.306-.158.525-.26 1.151-.26 1.676-.52.63-.054.63.522 1.153.729l.001.002zm31.114-.731c.16.157.522.157.733.26.313.104.735.053 1.046.104v.053c.578.158 1.258.052 1.729.26-.052.367-.418.474-.629.68h-1.569v-.05l-1.52-.105c-.157-.158-.472-.21-.734-.21 0-.261-.316 0-.42-.157.213-.418.37-.993.89-1.044.056.157.263.26.474.209z" fill="#6F3D22"></path><path d="M16.118 64.302c.157.158.473.211.786.211.104.21.629.052.68.367-1.204.575-2.617.836-3.875 1.253.471-.835 1.466-1.149 2.042-1.829h.367v-.002zm6.6.943c.209.157.575.366.575.626h-.315a1.849 1.849 0 0 0-1.098-.364h-.213c-.366-.21-.68-.367-1.15-.367h-.158c-.105-.209-.473-.104-.576-.313.68-.105 1.151-.731 1.938-.523.315.418.628.574.995.94h.002zm82.342-.732c.158.262.524.21.473.627h-.209c-.106-.26-.526-.051-.733-.209-.158-.157-.475-.209-.788-.209-.158-.157-.471-.209-.733-.157-.054-.26-.365-.052-.525-.21-.051-.468.578-.104.789-.364.104-.053.417-.053.469-.262.577.053.733.627 1.257.784zm-5.97-.575c.26.209.838.053.94.418a29.068 29.068 0 0 1-3.612 1.202c.576-.47 1.151-1.36 1.94-1.829.102.262.522.051.732.209z" fill="#FFCA05"></path><path d="M74.21 64.67c0 .052.05.104.05.157.106 0 .106-.053.157-.105.418.158 1.626 0 2.255.158-.211.522-.733.94-1.31 1.098-.63 0-2.043.469-2.151-.42h-.26c0-.365.418-.784.682-.94.157.104.42.051.575.051" fill="#6F3D22"></path><path d="M102.862 64.88c.156.158.469.209.782.158.16.155.475.26.737.207.156.157.471.21.785.21 0 .207.313.052.47.156v.158c-.839.209-1.779.729-2.67.364-.473-.47-.575-.887-.946-1.306l.842.053z" fill="#FFCA05"></path><path d="M81.489 67.127c.315.209.575.366 1.046.366.056.21.369.158.525.21.209.208.84 0 .89.417 0 .471-.47.522-.733.785H81.96c-.102-.21-.365-.158-.575-.21 0-.262-.263-.053-.365-.208-1.417-.629-3.195-1.202-3.93-2.667.418-.157.418-.942.942-.784.944.942 2.2 1.62 3.457 2.09m-35.043-2.141a.774.774 0 0 0-.209.678c-.157 0-.106.157-.106.262 0 .104-.051.209.053.262h.053c-.315.418-.89.469-1.573.418-.262-.054-.415-.316-.733-.367-.209-.418-.837-.418-.575-.993 1.204.209 1.937-.365 3.09-.26" fill="#6F3D22"></path><path d="M20.99 65.611c.315.21.628.367 1.1.367.208.26.733.104.837.418-.786.364-2.306.364-3.09.209-.315-.471-.733-.89-.995-1.36.681-.052 1.31.366 2.148.366zm79.199-.575c-.367.627-.785 1.464-1.467 1.517-.628-.053-1.15-.157-1.833-.106.052-.051 0-.105-.053-.158 0 .053-.051.107-.051.158-.053-.209-.315-.105-.524-.158v-.102c1.153-.367 2.306-.731 3.403-1.151h.525z" fill="#FFCA05"></path><path d="M42.466 65.504c0 .316.315.367.262.734-1.833 1.044-3.561 2.093-5.71 2.51-.63-.053-1.153-.524-1.57-.993 0-.418.626-.262.942-.366a20.128 20.128 0 0 0 5.605-2.196c.262-.053.315.209.47.313" fill="#6F3D22"></path><path d="M18.193 66.5c-.055 0-.108.05-.163.05.433.263-.217.476.163.68v.211c-.055 0-.108.052-.163.052.217.106.108.313.163.524h-.055l-.108 1.409c-.162-.834-1.407-1.827-.487-2.613.217-.105.487-1.151.65-.316m1.069 1.309c-.105.524-.42.836-.682 1.307 0-.105.053-.316-.052-.418h-.053c.262-.783 0-1.882.158-2.771.262.575 1.415 1.1.629 1.882m-1.678-2.195c-.47.473-.47 1.517-1.466 1.413v-.107l-1.308-.104c-.054-.262-.42-.052-.578-.207 1.049-.42 2.148-.944 3.352-.995m83.233-.158c.211.942.054 2.247.105 3.242-.262-.158-.522-.576-.68-.889-.104-.418-.577-.731-.524-1.098.42-.416.682-.942 1.1-1.255m1.834 1.673c-.368.731-.577 1.466-1.048 2.144l-.158-.157c0-1.256-.051-2.562-.209-3.763.158-.262.262 0 .473.103.314.524.994.942.942 1.675" fill="#FFCA05"></path><path d="M46.08 71.413c-.524.368-.995.731-1.466 1.1-.42.364-.838-.054-1.258-.107-.157-.889.996-.625 1.31-1.2.523-.106.839-.575 1.256-.89.263.208.105.73.158 1.097zm30.278.627c.208.262-.105.524-.211.784-.316.209-.576.209-.996.209a6.77 6.77 0 0 1-1.832-1.149v-2.509c.995.993 1.937 1.882 3.037 2.665h.002zm.313-2.823c.735.576 1.57 1.151 2.408 1.571.158.418-.262.52-.522.727-.473.107-.786.266-1.31.211 0-.26-.316-.05-.367-.209-.995-.835-2.148-1.724-2.828-2.875.47-.104.837-.574 1.413-.574.315.47.837.678 1.206 1.15zm-30.59.105c-1.363.784-2.254 2.144-3.982 2.3v.104c-.262-.26-.838-.05-1.204-.209-.315-.208-.63-.364-.944-.575v-.418c.995-.158 1.781-.627 2.672-.993 1.258-.522 2.306-1.254 3.35-2.038.212.47.158 1.253.107 1.829zm-1.363-1.778c-1.886.944-3.51 2.247-5.71 2.669 0-.264-.261-.053-.314-.211-.367-.209-.996-.209-.996-.785a6.08 6.08 0 0 1 1.469-.47c1.1-.47 2.25-1.045 3.35-1.516.42-.05.524-.68 1.102-.467.262.362.995.311 1.1.78zm30.433-.837c-.206.42-.42.837-.944.995-.208 0-.575.21-.888.055-.682-1.624 1.1-.893 1.832-1.048v-.002zm2.515.632c.838.885 1.99 1.2 3.142 1.67.366.104.628.315.944.522-.42.682-1.469.682-2.357.731-1.153-.522-2.044-1.411-3.04-2.142-.208-.262-.366-.471-.575-.731.473-.158.367-1.465.995-.838l.891.786v.002z" fill="#6F3D22"></path><path d="M46.5 76.64c.05.783.366 1.358.417 2.145.525 3.764 2.464 6.637 4.401 9.46v.21c-.995 0-1.833-.575-2.357-1.464-.682-1.253-1.204-2.509-1.415-4.129-.158-.784.104-2.09-.786-2.457-.314.053-.26.469-.26.733.104.678.366 1.202.417 1.931.316.942.473 2.04.578 3.19-.158.21.157.21.051.523-.209.053-.051.416-.158.627-.262 0-.05.262-.209.364-.575 1.413-1.624 2.876-3.299 2.929 0-.053-.053-.104-.106-.104.21-.732.788-1.463.89-2.405.158-.157.212-.469.212-.731.208-.315.104-.889.315-1.202-.053-.053.051-.211-.053-.262h-.107c.367-.887-.051-1.675-.104-2.614-.418-1.41-.418-3.137-.838-4.546.158-.524.262-1.047.42-1.622.418-.574.993-1.36 1.937-1.254l.053.68v-.002zm27.447-1.253c.784 1.202.942 3.084.575 4.6-.155.157-.155.575-.262.729-.104.264.053.63-.104.84h-.053l-.158 1.148h-.051c-.473 2.3-.473 5.438.262 7.527-.733.16-1.466-.418-2.148-.834-.316-.366-.42-.837-.63-1.255l.054-1.882c.21-.211.21-.576.21-.889.208-.209.157-.627.208-.942.21-.106.055-.418.158-.627.209-.313.317-.68.366-1.098.262 0 .053-.313.211-.417.158-.471.418-.887.522-1.413-.157-.103-.157-.47-.522-.314-.104.314-.368.369-.315.731-.158.158-.21.473-.21.787-.155.209-.155.68-.21.993-.158.209-.051.522-.158.731-.155.158-.155.471-.155.68-.207.158-.207.471-.263.627-.366 1.255-1.152 2.089-2.041 2.98-.473.209-.942.47-1.415.628a17.21 17.21 0 0 1 1.204-1.726c.84-1.253 1.781-2.562 2.252-4.129.263-.158.105-.522.367-.733.209-.627.367-1.255.576-1.88.21-.158.108-.629.315-.785-.051-.68.262-1.097.262-1.777h.051c.107-.995.262-1.725.316-2.722.42-.1.366.475.786.422zm3.979-2.822c-.942 1.149-1.884 2.3-2.775 3.344-.42-.837-.995-1.673-1.886-2.09v-1.045c1.048.26 2.777 1.67 3.772.26.26-.26.369-.731.889-.47zm-34.623.73c1.206.367 1.94-.472 2.777-.886.157.574-.105 1.358.157 1.827.052.887-1.206.471-1.31 1.255-.367.158-.629.471-.995.625-.996-1.251-1.833-2.56-2.882-3.762 1.31-.522 1.258.889 2.253.942z" fill="#FFCA05"></path><path d="M76.094 87.932c.471.573.42 1.62.314 2.406-.471.938-1.415 1.567-2.568 1.618 0-.104-.471-.104-.625 0v.051l-.108-.102c-.05.051-.103.051-.103.102l-.104-.102c-.211.26-.63.102-.944.102 0-.05-.052-.05-.052-.102-.368.26-.997.102-1.466.102a.916.916 0 0 1-.684-.626v-.158c.213 0 .055-.26.213-.311.365-.471.627-.994 1.047-1.463.47.732 1.31.887 1.937 1.41h.264c.156.157.469.21.731.157.262.16.682.26 1.047.16.42-.055.21-.633.157-.893-.364-.993-.835-2.142-.68-3.291.785-.105 1.049.731 1.624.94zm-32.108.158c-.209.26-.317.626-.42.942-.286.482-.532.99-.733 1.513-.16.105-.16.369-.317.524.266.73 1.261.52 1.886.47a4.429 4.429 0 0 0 1.362-.576c.524-.05.89-.576 1.154-.993.732-.625.787-1.725 1.465-2.351.264.886-.103 2.195.577 2.822.158.573.526 1.097 0 1.568-1.622.156-3.299 0-5.236 0 0-.21-.367 0-.475-.157-.887-.158-1.358-.993-1.675-1.725-.314-1.41.421-2.246 1.363-2.928.263-.21.84-.105 1.098-.312l-.05 1.2v.003z" fill="#FFCA05"></path><path d="M51.319 91.015c.051.367.158.733.262.993-.367-.05-.682-.313-1.048-.469.262-.104.524-.417.786-.524zm17.548.576c.156.626-.735.575-.946.993-.103.053-.365 0-.365.209-.315-.105-.628-.47-.42-.887.156-.053.211-.315.156-.524.422.053 0-.471.369-.418.473.051.89.418 1.206.627zm-1.886-1.045c-.211.26-.315.678-.422.993-.102.105-.102.314-.26.365-.471.158-.42-.365-.68-.522-.213-.68.784-.887.94-1.465.211-.05.317-.157.422-.26v.889zm-13.358.209c-.158.47-.629.731-.942.887-.473 0-.211-.678-.473-.887v-1.098c.577.21.89.836 1.415 1.098zm-2.304-1.307c.262.68-.367.94-.682 1.254-.22.07-.453.09-.68.053-.315-.575-.42-1.257-.367-1.987.63.156 1.203.418 1.729.68zm18.857-1.046c-.422.784-.631 1.671-1.258 2.3-.524-.053-.786-.522-.942-.993a8.507 8.507 0 0 0 2.2-1.307z" fill="#6F3D22"></path><path d="M89.819 93.263c1.57 1.831 2.566 3.922 2.775 6.587h.053c-.262.47-.053 1.255-.209 1.83-.21.207-.158.627-.158.94-.209.107-.157.367-.209.576-.262 0-.053.313-.21.418-.63 1.62-1.31 3.24-2.726 4.338-.47.786-1.413.993-1.989 1.621-1.99 1.096-4.556 1.622-7.28 1.254-.21-.158-.58-.207-.944-.158-.313-.313-.995-.049-1.255-.364-.158-.054-.369-.21-.63-.21-.21-.206-.63-.104-.785-.366-1.573-.731-2.884-2.142-4.086-3.291-.526-.418-.733-1.047-1.26-1.362-.364.526-.47 1.151-.73 1.677-.21 0 0 .312-.158.416-.209.52-.366 1.043-.575 1.62-.21.365-.576.73-.576 1.307-.21.313-.315.682-.473.993-1.15 2.98-2.932 5.489-4.818 8.049-.318.106-.525.627-.838.731-.633.89-1.675 1.413-2.41 2.095h-.576c-.317-.106-.524-.42-.786-.576-1.309-.835-2.357-2.093-3.561-3.035-.84-1.097-1.571-2.246-2.306-3.344-1.518-2.613-2.775-5.593-3.77-8.571-.263-.16-.211-.889-.734-.629-1.52 2.038-3.247 3.504-5.342 4.705l-.263.157c0-.051-.053-.106-.053-.157-.837.315-1.466.886-2.515.837l-.888.207c0 .158 0-.104-.054-.104-.944.16-1.57.317-2.619.16v-.056l-1.31-.158c0-.26-.314 0-.418-.155-2.41-.783-4.348-2.507-5.972-4.492a10.887 10.887 0 0 1-1.937-4.5c-.262-1.148-.158-2.457.104-3.552.158-.105.21-.367.21-.576.157-.209.104-.629.364-.838.788-2.246 2.779-4.23 5.187-4.755.944 1.724 1.833 3.606 3.615 4.706.524.312 1.153.625 1.832.731.054.262.42.103.631.207.158.158.522.158.733.262.522.052 1.151.052 1.624.263 0 .626.316 1.044.367 1.62-.944.313-1.99.104-3.144.157v-.053c-.366-.053-.682-.156-1.048-.104-.262-.365-.838-.105-1.151-.365h-.158c-.317-.21-.628-.317-.942-.473-.577-.363-1.206-.73-1.573-1.307-.786-.782-1.308-1.777-1.78-2.769-.523.052-.63.627-.943.94-.68.365-.733 1.203-.942 1.884a1.102 1.102 0 0 0-.158.834h-.104c-.367 3.349.837 6.064 3.09 7.893 1.048.629 1.99 1.362 3.195 1.569.21.158.524.21.84.21v.052c4.294.418 7.804-1.62 9.688-5.069.473-1.046 1.153-1.988 1.52-3.137.157-.107.104-.525.314-.629.052.418.996 1.098.316 1.726-.316.207-.053.574.207.627.682.051 1.048-.313 1.675-.366.526 1.724 1.155 3.397 1.626 5.228 1.046 3.345 2.672 6.326 5.027 8.938.787.784 1.573 1.724 2.568 2.195 2.93-2.351 4.661-5.382 6.18-8.626h.052c.262-.78.682-1.307.89-2.087.156-.109.212-.369.156-.576.265-.317.369-.835.578-1.204.158-.628.473-1.096.63-1.671.103-.629.314-1.046.314-1.675.207-.05.053-.365.207-.522.473.104.89.575 1.573.315.106-.836-.785-1.151-.471-2.198.262 0 .053-.313.208-.417.158-.21.263-.471.473-.627.103.051.418.051.418.418.16.626.316 1.306.629 1.882 1.257 3.291 4.348 5.855 7.858 6.69.626.263 1.415.105 2.199.16-.051.05 0 .103.053.103 0 0 .053-.053.053-.105l.105.105c.364-.158.89-.158 1.36-.262 2.619-.367 4.927-2.196 5.867-4.6.788-1.675.735-4.182.104-5.909-.104-.886-.784-1.515-1.15-2.246-.105 0-.263-.21-.42-.156-1.258 2.089-2.984 4.129-5.448 4.756-.944.42-2.097.522-3.248.626v-.051l-1.15-.104c-.054-.158-.318-.207-.525-.207-.104-.211-.733 0-.577-.418.157-.107.209-.369.157-.576.316-.106-.05-.733.42-.733h.471v.051c.314.107.682.107.942 0 .105-.157.995.052 1.413-.207 1.835-.42 3.51-1.466 4.82-2.772.578-.994 1.363-1.883 1.574-3.136.208-.26.315-.678.575-.942.942.471 1.57 1.307 2.515 1.882" fill="#FFCA05"></path><path d="M55.091 92.426c-.106.262-.264.733-.106 1.1a.891.891 0 0 0 .524.157c.104-.313-.053-.682.104-.942.262-.104.262.158.42.21v1.044h-.053l-.105 1.1-.628-.054c-.262-.053-.525-.366-.629-.575-.315-.68-.315-1.882 0-2.562.42-.052.262.366.473.524" fill="#FEFEFE"></path><path d="M51.161 92.845c.104.263-.209.263-.262.369-.367-.213-.942-.475-.942-1.046.104-.158.262-.211.522-.211.211.313.262.73.682.887" fill="#6F3D22"></path><path d="M64.728 92.793c-.21.263-.052.838-.367 1.045-.158.418-.418.836-.89.887.104-.205.05-.52.05-.73h.054c.104-.208.053-.472.104-.733h.105c0 .107 0 .158.053.211h.158c-.052.052 0 .103.05.103.525-.207.263-.991.42-1.464h.263v.681z" fill="#FEFEFE"></path><path d="M69.705 92.793c-.211.42-.787.732-1.204.994-.42.104-.211-.418-.42-.525.157-.417.784-.624 1.098-.993.368-.102.63.158.526.524" fill="#6F3D22"></path><path d="M72.178 93.787c.209.104.05.418.157.626-.157-.315-1.166-.888-.955-1.357.638-.211.744.26.798.73m-24.318-.73c.106 0 .106-.054.158-.107.524.107-.21.524-.21.786-.577.47-.732 1.307-1.517 1.567.26-.782.94-1.308 1.045-2.195.106-.158.473.053.473-.21 0 .052.053.105.053.159m18.697.05c.997.888 1.94 1.934 2.308 3.243.418 1.41-.524 2.142-.578 3.395-.053 0-.053.056-.104.056.051.049.051.102.104.049-.209.106-.053.524-.157.731-.418-.05-.262-.625-.367-.938-.784-2.038-1.206-4.235-2.359-6.064.264-.105.055-.629.317-.733.26.104.525.628.836.262M53.414 92.9c-.054.625.315.938.209 1.567-.21.315-.367.575-.418.993-.473.887-.682 2.038-1.102 2.978-.209.106-.104.418-.209.629-.209.053-.157.364-.157.575-.263.051-.052.365-.21.52-.628-.782-.786-1.882-1.308-2.82-.158-.418-.053-.838.104-1.307.263 0 .052-.262.21-.366.575-1.045 1.048-2.144 2.043-2.824.26 0 .576.053.838.053" fill="#FFCA05"></path><path d="M70.804 94.048c-.473.26-1.153.471-1.571.783-.158-.051-.262-.207-.21-.471.314-.363.681-.938 1.154-1.096.26.209.522.471.627.784m-20.219-.053c-.262.103-.158.733-.63.471-.21-.418-1.256-.21-.943-.993.054-.158.316-.367.525-.367.262.367.944.418 1.048.89" fill="#6F3D22"></path><path d="M57.184 94.152h-.051c-.21.471.051.836.157 1.203.471.157.418-.367.418-.627-.157-.316.158-.367.211-.576.158.836-.053 1.674.209 2.405h-.262c-.315-.052-.473-.471-.733-.576-.42-.68-.473-1.62-.262-2.404.366 0 .315.315.315.575h-.002zm5.71-.73c-.21.99-.158 2.248-1.203 2.612h-.053v-.888c.104.05.156-.052.156-.158v-.26c0 .157.42.313.473.051.26-.418.524-.782.524-1.36h.102v.002z" fill="#FEFEFE"></path><path d="M71.956 95.042h.052v.206h-.052c0-.102-.05-.102-.05-.155-.576.524-1.627.315-2.151.889-.104-.21-.367-.314-.209-.574.262-.524 1.049-.68 1.466-.993.42 0 .682.418.944.627m-22.106-.054c.053.316-.158.42-.315.471-.47-.21-.785-.575-1.465-.417-.209-.316.158-.473.316-.68.73-.158.888.47 1.466.626" fill="#6F3D22"></path><path d="M65.723 96.035c.944 2.3 1.834 4.808 1.623 7.735-.157.315-.208.733-.522.993-.475.262-.788.838-1.468.629-.053-.733.104-.784-.103-1.36.05 0 .05-.051.103-.104l-.053-.053c0-1.934-.524-3.45-.785-5.28-.315-.836-.368-1.932-.682-2.874l.367-.262c1.05 2.509 1.675 5.28 1.675 8.416l.213.262.26-.367c.21-3.291-.473-6.115-1.572-8.677.104-.158.053-.365.317-.365.313.418.418.887.627 1.307m-6.287-1.256.157 1.256h.054c-.316.209 0 .47.157.626.418-.209.522-.626.471-1.097-.053-.105-.21-.054-.157-.21.104-.157.157-.522.42-.575h.417v.262c-.053 0-.104.052-.104.052.209.053.05.366.104.524-.209.209-.053.782-.364.991-.211.42-.369.786-.84.889-.262-.051-.473-.365-.63-.574-.365-.628-.47-1.464-.314-2.3.369-.157.315.21.633.158" fill="#FEFEFE"></path><path d="M48.017 95.355c-.051.051 0 .105.053.105.054.05.105 0 .105-.054.315.054.837.262 1.1.629 0 .158.053.313.053.52-.787.525-1.153-.73-2.2-.364-.315-.26.21-1.204.89-.836" fill="#6F3D22"></path><path d="M54.933 96.398c-.368.158-.053.682-.368.84-.052.469-.471.731-.418 1.253-.158.158-.21.416-.158.678-.051 0-.104.055-.158.055.054.05.107.103.158.103-.209.522-.366 1.046-.366 1.724h-.105l-.104 1.307h-.054c-.05.838-.315 1.987.263 2.51l.21-.21.105-2.403c.051 0 .051-.053.104-.053-.053-.209.052-.889.105-1.253.104-.68.315-1.1.315-1.83a.58.58 0 0 0 .209-.575c.158-.106.209-.315.209-.575.158-.313.315-.627.473-.995.365-.262 0-1.254.68-1.043.315-.106.262.363.42.418-.262.834-.84 1.41-.944 2.351 0 .783-.785 1.098-.576 2.038-.209.158-.209.575-.262.786l-.106 1.096h-.103c-.053.367-.158.682-.106 1.1h-.052l-.053 1.882c-.995-.053-1.36-.995-1.728-1.728-.315-.994-.158-2.35-.105-3.5.158-.212.21-.576.158-.943.209-.207.209-.624.26-.887.107-.157.107-.42.158-.626.21 0 0-.262.158-.369.315-.729.628-1.462 1.1-2.193.21.315 1.099.364.681 1.042" fill="#FEFEFE"></path><path d="M74.21 96.348c0 .367-.526.418-.42.836-.575.522-.366 1.935-1.624 1.411-.106-.209-.577-.051-.577-.364.89-.107 1.204-.836 1.937-1.307.056-.158-.102-.209-.102-.315-.682.157-.995.733-1.675.733-.158.313-.631.157-.946.207.473-.365 1.257-.47 1.57-1.151.42-.467 1.417-.418 1.835-.05m-26.558.316c0 .26.264.049.366.207.318.053.526.315.944.366-.68.105-1.36-.366-2.2-.315-.208-.311-.68-.418-.784-.836.576.053.838.785 1.674.576m24.881-.994c-.207.312-.68.627-.942.94-.524.107-.993.576-1.622.316 0-.418.315-.733.733-.887.576-.213 1.098-.315 1.831-.369" fill="#6F3D22"></path><path d="M63.21 96.556c.261.784.47 1.569.681 2.353.576 1.934.733 4.496.629 6.847-.211.106-.053.422-.158.629-.42.21-.526.729-.89.942-.527 0-1.207.104-1.467-.316v-2.873c.102 0 .102-.055.158-.055-.37-.103.207-.259-.056-.52 0-1.57-.364-3.032-.315-4.654-.262-.418-.102-1.202-.418-1.622-.102-.26.211-.26.264-.418.156 0 .263-.104.47-.049.786 2.663.892 5.907.786 8.936.051.106.209.053.315.053.207-.158 0-.575.262-.678l-.055-.055c.055-1.096.262-2.403 0-3.656h-.05c.158 0 .158-.315 0-.368.105-1.827-.42-3.19-.786-4.758.21-.418.631 0 .631.262" fill="#FEFEFE"></path><path d="m44.233 97.372.055.436c-.382-.187-.985-.187-.985-.804.33-.432.769 0 .93.37v-.002zm30.76-.865c0 .207.576 0 .367.416-.47.051-.629.94-1.1.418.263-.158.107-.678.42-.834h.316-.002zm-29.81.37c.162.06.081.363.081.543-.321-.243-.885-.542-.966-.905.402-.18.966-.06.887.363h-.002zm.686.255c.577.418 1.31.418 2.148.47.053.212.367.158.578.212v.049c.157.106.417.106.628 0v-.105c.418 0 .314.523.68.732.053.575.682.837.473 1.517-.157.158-.473.21-.788.158.158-.158.682-.107.577-.524-.209-.103-.366-.26-.63-.21l.21-.524c-.104-.26-.522-.31-.784-.31.051-.21.471 0 .418-.366 0-.21-.262-.106-.262-.317-.627.107-1.255.367-1.886.524-.365-.05-.576-.469-1.047-.366-.053-.258-.315-.103-.42-.209-.157-.576-.417-1.098-.575-1.618.473 0 .367.678.682.885l-.002.002z" fill="#6F3D22"></path><path d="M57.395 97.863c-.211.315-.367.575-.42.993-.158.158-.209.418-.158.682-.157.103-.208.363-.208.574-.21.26-.052.835-.367 1.097v.785h-.053c-.051.364-.21.626-.158.993h-.051a4.672 4.672 0 0 0 0 2.09c.158.261-.051 1.046.473 1.203l.104-.157v-3.45c.158-.26.158-.786.262-1.099.052-.26.156-.47.105-.782.209-.103.158-.473.209-.734.262-.26.209-.626.366-.993v-.209c.21-.209.105-.625.367-.784v-.258c.209-.056.104-.318.209-.475h.104l-.051 1.36h-.053l-.158 2.248h-.051c-.209 1.725-.158 3.766-.051 5.593-.42.316-.631.734-1.31.523-.367-.05-.576-.312-.892-.467-1.046-.682-.522-2.407-.575-3.607h.053c.051-.317.209-.63.156-1.048h.053l.104-1.15c.158-.053.262-.315.21-.522.157-.157.21-.47.21-.786.158-.26.314-.627.418-.938.42-.473.209-1.675 1.153-1.52v.838z" fill="#FEFEFE"></path><path d="M76.539 97.028c.343.632-.686.632-.917.985.231-.07.115-.985.917-.985" fill="#6F3D22"></path><path d="M33.875 99.85c.786.575 1.415 1.257 2.568 1.359v.053c.313.051.576.158.942.105v.053c.315.05.629.207.995.158v.049c2.149.315 4.243-.158 6.023-.834.367.574.524 1.41 1.362 1.514 0 .262.262.051.367.21-.367 1.36-1.467 2.3-2.356 3.29-.42.106-.681.63-1.153.575-.89.68-1.939.994-3.09 1.205 0 .157 0-.054-.053-.054-.68.318-1.728.158-2.515.105 0-.051-.05-.105-.104-.105 0 0-.051.054-.051.105-1.833-.576-3.615-1.569-4.506-3.291-.104-.265-.366-.42-.473-.63-.209-1.097-.626-1.933-.73-3.083.05 0 .104-.054.104-.054 0-.104.05-.207-.054-.26-.104 0-.05-.158-.05-.262h.05l.158-1.516c.209 0 0-.31.158-.417.209-.156.104-.576.313-.68.786.628 1.153 1.829 2.095 2.404m54.32-2.247c.315 1.205.575 2.51.47 4.025h-.053c-.157 1.829-1.257 3.086-2.461 4.182-1.833 1.253-4.61 1.671-7.018 1.098-.211-.207-.631-.105-.838-.365h-.262c.051-.26-.209-.055-.315-.21-1.729-.626-3.09-2.3-3.928-3.712.262-.575.89-.993.89-1.827 0-.262.472-.262.68-.16.105.16.314.211.578.16 0 .258.26.051.367.21 1.937.726 5.132.884 6.964-.11 1.782-.782 3.46-1.986 4.506-3.655.262-.055.366.157.42.364" fill="#FFCA05"></path><path d="M76.807 97.619c.155.307 0 .928-.464.772-.155-.31 0-.928.464-.772zm-33.189.35c.105.314-.158.365-.262.52-.42 0-.575-.258-.995-.258v-.317c.262-.156.315-.573.733-.469l.524.524z" fill="#6F3D22"></path><path d="M60.851 97.917c.316 1.829.734 3.656.525 5.802l-.053 2.3h-.052c-.053.784-.106 1.567-.682 1.987-.366 0-.417.313-.837.208-.316-.104-.682-.208-.787-.575-.942-1.202-.366-3.346-.524-5.018h.053l.158-2.246c.051 0 .051-.054.105-.054-.105-.366.157-1.202.05-1.829.263-.053.105-.315.158-.524.158.053.42.156.473.316l.158 8.937c.051.105.26.313.418.105.051-1.256.158-2.72-.053-3.87h.053c.051-.47.158-1.097-.053-1.463l.104-.105c0-.051-.051-.104-.104-.051.157-.315.157-.993 0-1.256.157-.104.104-.47.104-.729 0 0-.051-.055-.104-.055.366-.524-.367-2.089.89-1.88" fill="#FEFEFE"></path><path d="M75.31 98.49c.178.26.251.578.208.89-.629-.052-1.048-.73-1.257-1.203.473-.262.682.262 1.048.315" fill="#FFCA05"></path><path d="M71.262 98.59c-.11.156-1.086.31-.978-.309l.978.31zm-24.762.556c-.053.192-.262.099-.368.099a.511.511 0 0 0-.051-.193c-.21.19-.367.19-.629.19-.158-.285-.053-.768.104-.96.42 0 .63.577.944.866v-.002z" fill="#6F3D22"></path><path d="M44.56 98.806c-.262.313-.315.73-.628.94-.209 0-.418.103-.629.051-.315-.942.733-.942 1.206-1.304.105 0 0 .207.052.313" fill="#FFCA05"></path><path d="M46.13 99.69v.173c-.312.264-.732.089-1.099.177-.104-.35 0-.879.158-.965.42-.087.682.086.942.614zm27.65.096h-.986c.246-.31.493-.776.985-.93v.93zm-30.532-.108c-.154-.054-.308 0-.463.053v.11c-.466-.217-.466-.603-.31-.985h.775v.822h-.002zm33.787-1.134c.19.47-.28.836-.66 1.2h-.28c.187-.417.093-.835.471-1.2h.47zm-6.661.592c-.178.098-.178.293-.178.394l-.808-.1v-.886c.36 0 .986.393.986.592z" fill="#6F3D22"></path><path d="M47.547 99.432c-.21.05 0 .417-.158.575-.262.469-.209 1.202-.784 1.413-.054-.21-.158-.471-.105-.786.367-.418.313-.994.733-1.307.21 0 .158-.262.316-.207v.312h-.002z" fill="#FFCA05"></path><path d="M69.54 100.527v.153l-.622-.307c.31 0 .465 0 .621.156v-.002zm-23.522.354h-.986v-.774c.493-.31.678.463.986.774zm28.129-1.07c-.132 1.082-.591.617-.985.769v-.769c.329.154.656-.467.985 0zm-4.194.605-.217-.293c-.11.098-.217.098-.217.293-.327-.195-.762-.492-.437-.985l.871.1v.885z" fill="#6F3D22"></path><path d="M74.304 101.393c-.165.421-.492.603-.985.782.164-.301.41-1.445.985-.782zm-4.657.437-.311-.62h.311v.62zm-23.314.154c-.617-.071-.863-.302-.986-.682l.493-.3c.861 0 .246.68.493.986v-.004zm4.412-1.07c-.449.112-.112.615-.788.672-.225-.225-.337-.783.112-.948.676-.17.227.276.676.276zm23.508-.233h-.62c0-.31.309-.31.62-.31v.31z" fill="#6F3D22"></path><path d="M66.614 106.02c-.262 0-.053.31-.21.417-.263.89-.63 1.618-.943 2.507h-.053c-1.571 2.826-2.986 6.066-5.603 7.948-1.833-1.882-3.668-3.766-4.612-6.168-.629-.836-.942-1.78-1.202-2.822-.264-.422-.578-.942-.473-1.571.42-.207.786.055 1.1.264.157.158.208.522.472.574.21.366.68.262.89.626.786-.051 1.519.107 1.939-.42a1.81 1.81 0 0 0 1.36 1.362c.263.365.943.105 1.259.052.575-.052.837-.783 1.413-.838v.055c1.048.207 2.044 0 2.672-.63.63-.207.158-1.358 1.1-1.252.106.102.47-.21.89-.104" fill="#FFCA05"></path><path d="M72.576 65.991c1.17 11.707-2.341 22.578-12.542 28.431-11.037-5.183-13.88-16.724-13.045-28.764 4.85.67 9.533-.67 12.877-3.512 3.347 2.677 7.86 5.183 12.712 3.845" fill="#FEFEFE"></path><path d="M71.383 67.229v5.739H48.088v-5.74c4.389-.167 8.947-.506 11.647-3.882 3.037 2.872 7.259 4.218 11.648 3.883" fill="#2178B4"></path><path d="M71.044 74.32c-.504 7.595-4.22 15.023-11.478 18.738-6.752-4.052-10.634-11.143-11.14-18.739h22.618z" fill="#E21D3C"></path><path d="m62.976 66.416.22.619.671.011-.534.395.193.622-.552-.368-.548.368.192-.62-.53-.397.67-.011.218-.62zm6.752 1.405.219.617.67.016-.534.394.195.624-.552-.372-.548.374.193-.626-.532-.394.668-.016.221-.617zm0 2.814.219.62.67.009-.534.398.195.623-.552-.37-.548.37.193-.623-.532-.398.668-.01.221-.619zm-3.238-3.094.223.617.672.012-.536.396.193.627-.552-.375-.548.375.195-.627-.534-.394.67-.014.217-.617zm-12.938-.282.219.62.67.01-.532.397.193.623-.552-.37-.548.37.193-.623-.534-.396.67-.012.22-.619zm.36 3.428.221.62.67.012-.534.396.193.623-.55-.372-.55.372.194-.623-.532-.394.67-.014.218-.62zm5.97-6.1.22.617.67.014-.535.394.193.626-.548-.374-.55.374.193-.624-.534-.396.67-.014.221-.617zm-2.956 1.689.223.617.67.014-.536.394.195.626-.552-.374-.548.374.193-.626-.532-.394.668-.014.219-.617zm4.643 4.077.219.617.672.014-.534.396.19.623-.547-.37-.55.372.193-.625-.534-.394.67-.016.221-.617zm4.36.142.222.617.67.014-.534.392.193.629-.552-.375-.547.375.19-.629-.53-.392.67-.014.217-.617zm-16.035-2.812.22.617.67.01-.533.398.193.625-.55-.37-.55.37.193-.625-.532-.398.668-.01.221-.617zm7.88 2.67.218.617.67.014-.534.396.193.623-.55-.37-.55.372.194-.625-.533-.394.67-.016.221-.617zm-7.88.422.22.617.67.016-.533.394.193.625-.55-.37-.55.37.193-.625-.532-.394.668-.016.221-.617zm18.79 4.052c-.507 3.711 1.348 8.44-1.69 11.137V74.825h1.69v.002zM64.967 88.5l-1.179 1.182V74.825h1.18L64.968 88.5zm-3.207 2.7-1.01.841-.17-17.215h1.182L61.76 91.2zm-3.206 1.01-1.183-1.18V74.827h1.183V92.21zm-3.207-3.036-1.517-1.687V74.827h1.517v14.346zm-3.545-4.22c-2.194-2.7-.674-6.752-1.183-10.128h1.183v10.13-.002z" fill="#FEFEFE"></path><path d="M95.862 106.597h-.016a3.723 3.723 0 0 0-3.715 3.735v.011c0 2.12 1.666 3.767 3.715 3.767 2.066 0 3.7-1.648 3.7-3.767 0-2.08-1.636-3.746-3.684-3.746m0 6.93c-1.665 0-3.011-1.4-3.011-3.184 0-1.748 1.346-3.165 2.995-3.165h.016c1.67 0 3.002 1.42 3.002 3.185 0 1.766-1.333 3.18-3.002 3.163" fill="#231F20"></path><path d="M96.528 110.477v-.032c.451-.134.818-.465.818-1.017 0-.4-.132-.683-.382-.867-.249-.181-.667-.315-1.3-.315-.498 0-.83.051-1.182.1v4.18h.666v-1.797h.464c.536 0 .802.2.9.733.083.548.182.93.284 1.065h.698c-.065-.134-.166-.383-.264-1.033-.085-.617-.333-.948-.702-1.017m-.899-.264h-.48v-1.42c.116-.013.266-.03.48-.03.751 0 1.02.364 1.02.732 0 .517-.472.718-1.02.718" fill="#231F20"></path></g></svg>